<?xml version="1.0" standalone="no"?>
<!DOCTYPE svg PUBLIC "-//W3C//DTD SVG 20010904//EN"
 "http://www.w3.org/TR/2001/REC-SVG-20010904/DTD/svg10.dtd">
<svg version="1.0" xmlns="http://www.w3.org/2000/svg"
 width="1024.000000pt" height="1024.000000pt" viewBox="0 0 1024.000000 1024.000000"
 preserveAspectRatio="xMidYMid meet">

<g transform="translate(0.000000,1024.000000) scale(0.100000,-0.100000)"
fill="#000000" stroke="none">
<path d="M5080 9564 c-68 -18 -166 -63 -222 -102 -24 -17 -92 -76 -153 -133
-60 -56 -216 -200 -345 -318 -129 -119 -390 -360 -580 -536 -190 -176 -439
-406 -554 -510 -252 -229 -312 -297 -376 -430 -59 -122 -62 -136 -155 -665
-196 -1107 -175 -1015 -320 -1410 -68 -184 -173 -468 -235 -630 -246 -652
-349 -928 -370 -995 -34 -108 -39 -286 -11 -388 45 -166 70 -198 459 -602 175
-181 488 -508 697 -725 549 -573 888 -914 959 -964 139 -100 272 -147 506
-181 126 -18 530 -79 625 -95 195 -33 1124 -181 1193 -191 275 -39 504 36 675
221 86 93 132 173 217 375 131 310 220 472 745 1360 62 105 187 316 278 470
91 154 204 345 251 424 47 79 95 168 106 199 30 80 36 164 16 241 -28 108 -53
147 -265 397 -273 324 -483 761 -571 1189 -60 293 -70 418 -80 1000 -8 532 -9
537 -70 671 -52 115 -77 147 -660 849 -64 77 -244 295 -400 485 -629 764 -664
803 -776 881 -70 48 -184 98 -259 114 -89 19 -253 18 -325 -1z m295 -249 c162
-43 320 -188 409 -376 92 -194 87 -447 -13 -712 -74 -194 -135 -314 -355 -691
-134 -231 -123 -219 -343 -377 -280 -200 -501 -301 -761 -350 -59 -11 -117
-27 -129 -34 -29 -19 -46 -75 -36 -116 16 -61 37 -67 243 -77 209 -10 257 -23
303 -83 53 -70 52 -40 52 -1344 0 -1371 5 -1278 -80 -1373 -66 -73 -128 -94
-339 -117 -47 -5 -65 -13 -88 -35 -37 -37 -39 -100 -5 -133 l22 -22 823 1 823
0 22 23 c17 16 22 33 22 72 0 62 -23 85 -93 94 -224 30 -302 59 -358 132 -18
23 -38 64 -45 90 -10 37 -13 405 -16 1673 l-4 1625 152 260 c198 341 257 450
318 587 90 203 135 367 149 547 l7 93 31 -44 c17 -23 84 -108 150 -188 66 -80
234 -284 374 -455 140 -170 329 -401 422 -511 192 -231 240 -301 270 -393 20
-63 22 -92 29 -596 4 -291 12 -570 18 -620 57 -459 145 -757 327 -1104 112
-214 241 -400 441 -634 119 -139 136 -171 131 -252 -4 -59 -10 -73 -150 -306
-130 -219 -719 -1219 -887 -1506 -36 -62 -68 -113 -71 -113 -3 0 -18 21 -35
48 -47 74 -188 265 -267 360 -94 114 -371 390 -478 476 -301 240 -604 375
-935 417 -136 17 -430 14 -600 -6 -155 -18 -509 -84 -770 -143 -93 -22 -173
-38 -176 -36 -3 2 -9 74 -12 161 -16 411 -127 824 -328 1226 -107 213 -357
598 -741 1140 l-70 98 20 102 c21 102 33 167 137 757 150 845 148 836 214 937
46 69 90 112 496 484 171 156 465 428 654 604 759 707 753 702 876 741 56 18
179 17 250 -1z m-2609 -4025 c184 -262 427 -629 496 -750 295 -517 412 -944
411 -1500 -1 -344 -58 -669 -186 -1068 l-24 -73 -189 198 c-313 327 -715 743
-964 998 -130 132 -250 262 -268 290 -44 67 -65 143 -64 234 1 100 -4 83 222
676 50 132 165 438 256 680 192 514 183 491 193 479 4 -5 57 -79 117 -164z
m2584 -2230 c428 -45 754 -219 1130 -606 197 -202 371 -424 492 -628 26 -45
48 -89 48 -99 0 -10 -15 -48 -34 -85 -18 -37 -69 -150 -111 -250 -43 -101 -95
-210 -116 -241 -78 -117 -191 -195 -318 -222 -89 -18 -219 -6 -611 60 -201 33
-525 85 -720 116 -195 30 -470 73 -611 95 -288 45 -370 69 -467 134 -94 63
-429 400 -415 418 13 15 78 216 123 373 45 160 97 422 117 588 l17 145 235 51
c681 147 955 180 1241 151z"/>
</g>
</svg>
